<svg width="345" height="112" viewBox="0 0 345 112" fill="none" xmlns="http://www.w3.org/2000/svg">
<g clip-path="url(#clip0_415_33)">
<path d="M344.887 37.749L337.299 30.1562L288.342 79.1407L295.931 86.7334L344.887 37.749Z" fill="white"/>
<path d="M334.218 30.074V87.2148H344.95V30.074H334.218Z" fill="white"/>
<path d="M344.95 30.0742H287.842V40.8121H344.95V30.0742Z" fill="white"/>
<path d="M0.0117188 87.2642V2.48424H31.3894C56.0519 2.48424 74.4878 20.5641 74.4878 44.8742C74.4878 68.94 56.174 87.2642 31.6335 87.2642H0.0117188ZM31.1452 12.9901H11.4884V76.7584H31.1452C49.7032 76.7584 62.6449 63.5649 62.6449 44.7521C62.6449 26.0614 49.7032 12.9901 31.1452 12.9901ZM104.307 88.4859C86.8479 88.4859 73.662 75.5368 73.662 58.1898C73.662 41.2094 86.7258 28.016 103.575 28.016C119.446 28.016 130.923 39.9878 130.923 56.4796C130.923 58.1898 130.801 60.0223 130.313 62.3433H84.8944C86.6037 71.9941 93.9292 78.1021 104.307 78.1021C110.778 78.1021 116.516 75.9032 120.301 71.2611L127.382 78.4686C121.766 84.9432 113.464 88.4859 104.307 88.4859ZM103.33 38.1554C93.563 38.1554 86.6037 44.0191 84.8944 53.1812H120.179C118.958 43.7748 112.854 38.1554 103.33 38.1554ZM131.916 111.574V29.2376H142.904V37.3002C147.177 31.5587 154.259 28.016 162.439 28.016C178.311 28.016 190.52 41.2094 190.52 58.312C190.52 75.2924 178.311 88.4859 162.439 88.4859C154.137 88.4859 147.177 85.0653 142.904 79.3238V111.574H131.916ZM160.607 78.1021C171.596 78.1021 179.288 69.9173 179.288 58.1898C179.288 46.5845 171.596 38.3997 160.73 38.3997C149.741 38.3997 142.294 46.5845 142.294 58.312C142.294 69.9173 149.741 78.1021 160.607 78.1021ZM191.989 87.2642V0.0410156H202.977V87.2642H191.989ZM234.56 88.4859C217.589 88.4859 204.281 75.0481 204.281 58.0677C204.281 41.2094 217.467 28.016 234.56 28.016C251.409 28.016 264.839 41.2094 264.839 58.0677C264.839 75.1703 251.531 88.4859 234.56 88.4859ZM234.56 77.8578C245.548 77.8578 253.484 69.5508 253.484 58.0677C253.484 46.7067 245.426 38.644 234.56 38.644C223.572 38.644 215.636 46.8288 215.636 58.0677C215.636 69.5508 223.572 77.8578 234.56 77.8578ZM271.848 17.6323C267.819 17.6323 264.888 14.5782 264.888 10.5469C264.888 6.63773 267.819 3.5837 271.848 3.5837C275.877 3.5837 278.807 6.63773 278.807 10.5469C278.807 14.5782 275.877 17.6323 271.848 17.6323ZM266.353 87.2642V29.2376H277.342V87.2642H266.353Z" fill="white"/>
</g>
<defs>
<clipPath id="clip0_415_33">
<rect width="345" height="112" fill="white"/>
</clipPath>
</defs>
</svg>
